<mxfile host="65bd71144e">
    <diagram id="wG9WiR39lr10lpEE-gVC" name="User Case (1)">
        <mxGraphModel dx="1219" dy="231" grid="1" gridSize="10" guides="1" tooltips="1" connect="1" arrows="1" fold="1" page="1" pageScale="1" pageWidth="1169" pageHeight="827" math="0" shadow="0">
            <root>
                <mxCell id="0"/>
                <mxCell id="1" parent="0"/>
                <mxCell id="59" value="" style="endArrow=none;dashed=1;html=1;dashPattern=1 3;strokeWidth=2;" parent="1" edge="1">
                    <mxGeometry width="50" height="50" relative="1" as="geometry">
                        <mxPoint x="384.58" y="700.6666564941406" as="sourcePoint"/>
                        <mxPoint x="384.58" y="80" as="targetPoint"/>
                    </mxGeometry>
                </mxCell>
                <mxCell id="60" value="" style="endArrow=none;dashed=1;html=1;dashPattern=1 3;strokeWidth=2;" parent="1" edge="1">
                    <mxGeometry width="50" height="50" relative="1" as="geometry">
                        <mxPoint x="484.5799999999999" y="700.6666564941406" as="sourcePoint"/>
                        <mxPoint x="484.5799999999999" y="80" as="targetPoint"/>
                    </mxGeometry>
                </mxCell>
                <mxCell id="61" value="" style="endArrow=none;dashed=1;html=1;dashPattern=1 3;strokeWidth=2;entryX=0.5;entryY=1;entryDx=0;entryDy=0;" parent="1" target="29" edge="1">
                    <mxGeometry width="50" height="50" relative="1" as="geometry">
                        <mxPoint x="674.5799999999999" y="700.6666564941406" as="sourcePoint"/>
                        <mxPoint x="674.5799999999999" y="80" as="targetPoint"/>
                    </mxGeometry>
                </mxCell>
                <mxCell id="28" value="committee" style="shape=umlActor;verticalLabelPosition=bottom;verticalAlign=top;html=1;outlineConnect=0;" parent="1" vertex="1">
                    <mxGeometry x="370" y="20" width="30" height="50" as="geometry"/>
                </mxCell>
                <mxCell id="29" value="app" style="rounded=0;whiteSpace=wrap;html=1;fillColor=#60a917;fontColor=#ffffff;strokeColor=#2D7600;" parent="1" vertex="1">
                    <mxGeometry x="640" y="35" width="70" height="30" as="geometry"/>
                </mxCell>
                <mxCell id="30" value="householder" style="shape=umlActor;verticalLabelPosition=bottom;verticalAlign=top;html=1;outlineConnect=0;" parent="1" vertex="1">
                    <mxGeometry x="470" y="21" width="30" height="50" as="geometry"/>
                </mxCell>
                <mxCell id="32" value="" style="rounded=0;whiteSpace=wrap;html=1;fillColor=#008a00;fontColor=#ffffff;strokeColor=#005700;" parent="1" vertex="1">
                    <mxGeometry x="667.5" y="210" width="15" height="50" as="geometry"/>
                </mxCell>
                <mxCell id="38" value="" style="endArrow=classic;html=1;" parent="1" edge="1">
                    <mxGeometry relative="1" as="geometry">
                        <mxPoint x="280" y="135" as="sourcePoint"/>
                        <mxPoint x="667.5" y="134.57999999999998" as="targetPoint"/>
                    </mxGeometry>
                </mxCell>
                <mxCell id="39" value="&amp;lt;Announce&amp;gt;" style="edgeLabel;resizable=0;html=1;align=center;verticalAlign=middle;" parent="38" connectable="0" vertex="1">
                    <mxGeometry relative="1" as="geometry">
                        <mxPoint x="103" as="offset"/>
                    </mxGeometry>
                </mxCell>
                <mxCell id="40" value="" style="endArrow=classic;html=1;" parent="1" edge="1">
                    <mxGeometry relative="1" as="geometry">
                        <mxPoint x="280" y="220" as="sourcePoint"/>
                        <mxPoint x="667.5" y="220" as="targetPoint"/>
                    </mxGeometry>
                </mxCell>
                <mxCell id="41" value="&amp;lt;response&amp;gt;" style="edgeLabel;resizable=0;html=1;align=center;verticalAlign=middle;" parent="40" connectable="0" vertex="1">
                    <mxGeometry relative="1" as="geometry">
                        <mxPoint x="103" y="1" as="offset"/>
                    </mxGeometry>
                </mxCell>
                <mxCell id="44" value="" style="endArrow=classic;html=1;" parent="1" edge="1">
                    <mxGeometry relative="1" as="geometry">
                        <mxPoint x="490" y="320" as="sourcePoint"/>
                        <mxPoint x="667.5" y="320" as="targetPoint"/>
                    </mxGeometry>
                </mxCell>
                <mxCell id="45" value="&amp;lt;response&amp;gt;" style="edgeLabel;resizable=0;html=1;align=center;verticalAlign=middle;" parent="44" connectable="0" vertex="1">
                    <mxGeometry relative="1" as="geometry"/>
                </mxCell>
                <mxCell id="33" value="" style="rounded=0;whiteSpace=wrap;html=1;fillColor=#008a00;fontColor=#ffffff;strokeColor=#005700;" parent="1" vertex="1">
                    <mxGeometry x="667.5" y="440" width="15" height="70" as="geometry"/>
                </mxCell>
                <mxCell id="48" value="" style="rounded=0;whiteSpace=wrap;html=1;fillColor=#008a00;fontColor=#ffffff;strokeColor=#005700;" parent="1" vertex="1">
                    <mxGeometry x="667.5" y="560" width="15" height="70" as="geometry"/>
                </mxCell>
                <mxCell id="49" value="" style="rounded=0;whiteSpace=wrap;html=1;fillColor=#008a00;fontColor=#ffffff;strokeColor=#005700;" parent="1" vertex="1">
                    <mxGeometry x="667.5" y="310" width="15" height="50" as="geometry"/>
                </mxCell>
                <mxCell id="31" value="" style="rounded=0;whiteSpace=wrap;html=1;fillColor=#008a00;fontColor=#ffffff;strokeColor=#005700;" parent="1" vertex="1">
                    <mxGeometry x="667.5" y="120" width="15" height="50" as="geometry"/>
                </mxCell>
                <mxCell id="52" value="" style="endArrow=classic;html=1;" parent="1" edge="1">
                    <mxGeometry relative="1" as="geometry">
                        <mxPoint x="280" y="450" as="sourcePoint"/>
                        <mxPoint x="667.5" y="450" as="targetPoint"/>
                    </mxGeometry>
                </mxCell>
                <mxCell id="53" value="&amp;lt;modification&amp;gt;" style="edgeLabel;resizable=0;html=1;align=center;verticalAlign=middle;" parent="52" connectable="0" vertex="1">
                    <mxGeometry relative="1" as="geometry">
                        <mxPoint x="103" y="1" as="offset"/>
                    </mxGeometry>
                </mxCell>
                <mxCell id="54" value="" style="endArrow=classic;html=1;" parent="1" edge="1">
                    <mxGeometry relative="1" as="geometry">
                        <mxPoint x="280" y="570" as="sourcePoint"/>
                        <mxPoint x="667.5" y="570" as="targetPoint"/>
                    </mxGeometry>
                </mxCell>
                <mxCell id="55" value="&amp;lt;deletion&amp;gt;" style="edgeLabel;resizable=0;html=1;align=center;verticalAlign=middle;" parent="54" connectable="0" vertex="1">
                    <mxGeometry relative="1" as="geometry">
                        <mxPoint x="103" y="1" as="offset"/>
                    </mxGeometry>
                </mxCell>
                <mxCell id="63" value="" style="endArrow=none;dashed=1;html=1;" parent="1" edge="1">
                    <mxGeometry width="50" height="50" relative="1" as="geometry">
                        <mxPoint x="670" y="618" as="sourcePoint"/>
                        <mxPoint x="290.00114982578384" y="617.773519163763" as="targetPoint"/>
                    </mxGeometry>
                </mxCell>
                <mxCell id="80" value="&amp;lt;deletion&amp;nbsp; success or failure&amp;gt;" style="edgeLabel;html=1;align=center;verticalAlign=middle;resizable=0;points=[];" parent="63" vertex="1" connectable="0">
                    <mxGeometry x="0.5851" y="-1" relative="1" as="geometry">
                        <mxPoint x="24" y="1" as="offset"/>
                    </mxGeometry>
                </mxCell>
                <mxCell id="66" value="" style="triangle;whiteSpace=wrap;html=1;rotation=-180;" parent="1" vertex="1">
                    <mxGeometry x="280" y="613" width="10" height="10" as="geometry"/>
                </mxCell>
                <mxCell id="67" value="" style="triangle;whiteSpace=wrap;html=1;rotation=-180;" parent="1" vertex="1">
                    <mxGeometry x="280" y="490" width="10" height="10" as="geometry"/>
                </mxCell>
                <mxCell id="68" value="" style="endArrow=none;dashed=1;html=1;" parent="1" edge="1">
                    <mxGeometry width="50" height="50" relative="1" as="geometry">
                        <mxPoint x="670" y="495" as="sourcePoint"/>
                        <mxPoint x="290.0011498257837" y="494.773519163763" as="targetPoint"/>
                    </mxGeometry>
                </mxCell>
                <mxCell id="79" value="&amp;lt;modification&amp;nbsp; success or failure&amp;gt;" style="edgeLabel;html=1;align=center;verticalAlign=middle;resizable=0;points=[];" parent="68" vertex="1" connectable="0">
                    <mxGeometry x="0.629" relative="1" as="geometry">
                        <mxPoint x="42" as="offset"/>
                    </mxGeometry>
                </mxCell>
                <mxCell id="69" value="" style="triangle;whiteSpace=wrap;html=1;rotation=-180;" parent="1" vertex="1">
                    <mxGeometry x="486" y="342" width="10" height="10" as="geometry"/>
                </mxCell>
                <mxCell id="70" value="" style="endArrow=none;dashed=1;html=1;" parent="1" target="69" edge="1">
                    <mxGeometry width="50" height="50" relative="1" as="geometry">
                        <mxPoint x="666" y="347" as="sourcePoint"/>
                        <mxPoint x="306.0011498257837" y="346.773519163763" as="targetPoint"/>
                    </mxGeometry>
                </mxCell>
                <mxCell id="78" value="&amp;lt;response success or failure&amp;gt;" style="edgeLabel;html=1;align=center;verticalAlign=middle;resizable=0;points=[];" parent="70" vertex="1" connectable="0">
                    <mxGeometry x="-0.1118" y="-3" relative="1" as="geometry">
                        <mxPoint x="-6" y="4" as="offset"/>
                    </mxGeometry>
                </mxCell>
                <mxCell id="72" value="" style="endArrow=none;dashed=1;html=1;" parent="1" edge="1">
                    <mxGeometry width="50" height="50" relative="1" as="geometry">
                        <mxPoint x="670" y="245" as="sourcePoint"/>
                        <mxPoint x="290.0011498257837" y="244.773519163763" as="targetPoint"/>
                    </mxGeometry>
                </mxCell>
                <mxCell id="77" value="&amp;lt;response success or failure&amp;gt;" style="edgeLabel;html=1;align=center;verticalAlign=middle;resizable=0;points=[];" parent="72" vertex="1" connectable="0">
                    <mxGeometry x="0.4403" y="2" relative="1" as="geometry">
                        <mxPoint as="offset"/>
                    </mxGeometry>
                </mxCell>
                <mxCell id="71" value="" style="triangle;whiteSpace=wrap;html=1;rotation=-180;" parent="1" vertex="1">
                    <mxGeometry x="280" y="240" width="10" height="10" as="geometry"/>
                </mxCell>
                <mxCell id="73" value="" style="triangle;whiteSpace=wrap;html=1;rotation=-180;" parent="1" vertex="1">
                    <mxGeometry x="277.5" y="157" width="10" height="10" as="geometry"/>
                </mxCell>
                <mxCell id="74" value="" style="endArrow=none;dashed=1;html=1;" parent="1" edge="1">
                    <mxGeometry width="50" height="50" relative="1" as="geometry">
                        <mxPoint x="667.5" y="162" as="sourcePoint"/>
                        <mxPoint x="287.5011498257837" y="161.773519163763" as="targetPoint"/>
                    </mxGeometry>
                </mxCell>
                <mxCell id="76" value="&amp;lt;declare success or failure&amp;gt;" style="edgeLabel;html=1;align=center;verticalAlign=middle;resizable=0;points=[];" parent="74" vertex="1" connectable="0">
                    <mxGeometry x="0.5807" y="2" relative="1" as="geometry">
                        <mxPoint x="26" as="offset"/>
                    </mxGeometry>
                </mxCell>
                <mxCell id="83" value="add" style="shape=umlFrame;whiteSpace=wrap;html=1;width=58;height=30;" parent="1" vertex="1">
                    <mxGeometry x="-50" y="90" width="568" height="280" as="geometry"/>
                </mxCell>
                <mxCell id="84" value="modification and deletion" style="shape=umlFrame;whiteSpace=wrap;html=1;width=98;height=36;" parent="1" vertex="1">
                    <mxGeometry x="172" y="414" width="568" height="280" as="geometry"/>
                </mxCell>
            </root>
        </mxGraphModel>
    </diagram>
    <diagram name="User Case (2)" id="W5YXxvn35K79e14MlGex">
        <mxGraphModel dx="1310" dy="766" grid="1" gridSize="10" guides="1" tooltips="1" connect="1" arrows="1" fold="1" page="1" pageScale="1" pageWidth="1169" pageHeight="827" math="0" shadow="0">
            <root>
                <mxCell id="f7n-re3Be10niUR_YaYW-0"/>
                <mxCell id="f7n-re3Be10niUR_YaYW-1" parent="f7n-re3Be10niUR_YaYW-0"/>
                <mxCell id="f7n-re3Be10niUR_YaYW-2" style="edgeStyle=none;html=1;entryX=0.5;entryY=1;entryDx=0;entryDy=0;fontSize=18;endArrow=open;endFill=0;dashed=1;" parent="f7n-re3Be10niUR_YaYW-1" edge="1">
                    <mxGeometry relative="1" as="geometry">
                        <mxPoint x="270" y="150" as="targetPoint"/>
                    </mxGeometry>
                </mxCell>
                <mxCell id="qa684_AXgQvbB9roF3Fi-3" style="edgeStyle=none;html=1;entryX=0;entryY=0.5;entryDx=0;entryDy=0;fontSize=18;endArrow=none;endFill=0;" parent="f7n-re3Be10niUR_YaYW-1" source="f7n-re3Be10niUR_YaYW-6" target="zsQrhb7hf74vSEVjKm_N-0" edge="1">
                    <mxGeometry relative="1" as="geometry"/>
                </mxCell>
                <mxCell id="f7n-re3Be10niUR_YaYW-6" value="&lt;span style=&quot;font-size: 18px;&quot;&gt;伺服器端&lt;br&gt;平台(收到封包)&lt;/span&gt;" style="shape=umlActor;verticalLabelPosition=bottom;verticalAlign=top;html=1;" parent="f7n-re3Be10niUR_YaYW-1" vertex="1">
                    <mxGeometry x="177" y="426" width="30" height="60" as="geometry"/>
                </mxCell>
                <mxCell id="qa684_AXgQvbB9roF3Fi-6" style="edgeStyle=none;html=1;entryX=1;entryY=0.5;entryDx=0;entryDy=0;fontSize=18;endArrow=none;endFill=0;" parent="f7n-re3Be10niUR_YaYW-1" source="qa684_AXgQvbB9roF3Fi-0" target="f7n-re3Be10niUR_YaYW-13" edge="1">
                    <mxGeometry relative="1" as="geometry">
                        <Array as="points">
                            <mxPoint x="920" y="200"/>
                            <mxPoint x="920" y="185"/>
                        </Array>
                    </mxGeometry>
                </mxCell>
                <mxCell id="qa684_AXgQvbB9roF3Fi-0" value="«actor»&lt;br&gt;伺服器端平台&lt;b&gt;&lt;br&gt;linux OS&lt;/b&gt;" style="html=1;fontSize=18;fillColor=none;" parent="f7n-re3Be10niUR_YaYW-1" vertex="1">
                    <mxGeometry x="970" y="146" width="180" height="120" as="geometry"/>
                </mxCell>
                <mxCell id="qa684_AXgQvbB9roF3Fi-5" style="edgeStyle=none;html=1;entryX=0;entryY=0.5;entryDx=0;entryDy=0;fontSize=18;endArrow=none;endFill=0;startArrow=none;startFill=0;" parent="f7n-re3Be10niUR_YaYW-1" source="qa684_AXgQvbB9roF3Fi-1" target="f7n-re3Be10niUR_YaYW-13" edge="1">
                    <mxGeometry relative="1" as="geometry"/>
                </mxCell>
                <mxCell id="qa684_AXgQvbB9roF3Fi-1" value="&lt;span style=&quot;font-size: 18px;&quot;&gt;後端審核者&lt;/span&gt;" style="shape=umlActor;verticalLabelPosition=bottom;verticalAlign=top;html=1;" parent="f7n-re3Be10niUR_YaYW-1" vertex="1">
                    <mxGeometry x="177" y="290" width="30" height="60" as="geometry"/>
                </mxCell>
                <mxCell id="qa684_AXgQvbB9roF3Fi-7" value="收到封包、確認需求至傳送License內容至客戶端前設計範圍" style="swimlane;whiteSpace=wrap;html=1;fontSize=18;fillColor=none;resizable=1;container=0;" parent="f7n-re3Be10niUR_YaYW-1" vertex="1">
                    <mxGeometry x="290" y="90" width="650" height="460" as="geometry"/>
                </mxCell>
                <mxCell id="f7n-re3Be10niUR_YaYW-13" value="伺服器端核發License案例" style="ellipse;whiteSpace=wrap;html=1;fontSize=18;" parent="qa684_AXgQvbB9roF3Fi-7" vertex="1">
                    <mxGeometry x="44" y="40" width="240" height="110" as="geometry"/>
                </mxCell>
                <mxCell id="zsQrhb7hf74vSEVjKm_N-0" value="封包接收案例" style="ellipse;whiteSpace=wrap;html=1;fontSize=18;" parent="qa684_AXgQvbB9roF3Fi-7" vertex="1">
                    <mxGeometry x="46" y="334" width="240" height="110" as="geometry"/>
                </mxCell>
                <mxCell id="nVOZ0_uvJ3XeAdb-_UQF-3" style="edgeStyle=none;html=1;entryX=1;entryY=0.5;entryDx=0;entryDy=0;fontSize=18;endArrow=none;endFill=0;dashed=1;startArrow=open;startFill=0;" parent="qa684_AXgQvbB9roF3Fi-7" source="f7n-re3Be10niUR_YaYW-11" target="zsQrhb7hf74vSEVjKm_N-0" edge="1">
                    <mxGeometry relative="1" as="geometry"/>
                </mxCell>
                <mxCell id="nVOZ0_uvJ3XeAdb-_UQF-4" value="&amp;lt;&amp;lt;include&amp;gt;&amp;gt;" style="edgeLabel;html=1;align=right;verticalAlign=middle;resizable=0;points=[];fontSize=18;" parent="nVOZ0_uvJ3XeAdb-_UQF-3" vertex="1" connectable="0">
                    <mxGeometry x="-0.4382" y="-2" relative="1" as="geometry">
                        <mxPoint x="1" as="offset"/>
                    </mxGeometry>
                </mxCell>
                <mxCell id="f7n-re3Be10niUR_YaYW-11" value="加解密案例" style="ellipse;whiteSpace=wrap;html=1;fontSize=18;align=center;" parent="qa684_AXgQvbB9roF3Fi-7" vertex="1">
                    <mxGeometry x="440" y="300" width="140" height="70" as="geometry"/>
                </mxCell>
                <mxCell id="zsQrhb7hf74vSEVjKm_N-2" style="edgeStyle=none;html=1;dashed=1;fontSize=18;endArrow=open;endFill=0;" parent="qa684_AXgQvbB9roF3Fi-7" source="zsQrhb7hf74vSEVjKm_N-0" edge="1">
                    <mxGeometry relative="1" as="geometry">
                        <mxPoint x="213.62427936607446" y="283.8533362842543" as="targetPoint"/>
                        <Array as="points"/>
                    </mxGeometry>
                </mxCell>
                <mxCell id="zsQrhb7hf74vSEVjKm_N-3" value="&amp;lt;&amp;lt;extend&amp;gt;&amp;gt;&lt;br&gt;[封包接受]" style="edgeLabel;html=1;align=left;verticalAlign=middle;resizable=0;points=[];fontSize=18;" parent="zsQrhb7hf74vSEVjKm_N-2" vertex="1" connectable="0">
                    <mxGeometry x="-0.284" y="1" relative="1" as="geometry">
                        <mxPoint x="12" y="-2" as="offset"/>
                    </mxGeometry>
                </mxCell>
                <mxCell id="zsQrhb7hf74vSEVjKm_N-1" style="edgeStyle=none;html=1;fontSize=18;endArrow=none;endFill=0;dashed=1;entryX=0;entryY=1;entryDx=0;entryDy=0;exitX=0;exitY=0;exitDx=0;exitDy=0;startArrow=open;startFill=0;" parent="qa684_AXgQvbB9roF3Fi-7" source="nVOZ0_uvJ3XeAdb-_UQF-19" target="f7n-re3Be10niUR_YaYW-13" edge="1">
                    <mxGeometry relative="1" as="geometry">
                        <mxPoint x="118" y="230" as="sourcePoint"/>
                    </mxGeometry>
                </mxCell>
                <mxCell id="zsQrhb7hf74vSEVjKm_N-4" value="&amp;lt;&amp;lt;include&amp;gt;&amp;gt;" style="edgeLabel;html=1;align=right;verticalAlign=middle;resizable=0;points=[];fontSize=18;" parent="zsQrhb7hf74vSEVjKm_N-1" vertex="1" connectable="0">
                    <mxGeometry x="-0.2742" y="2" relative="1" as="geometry">
                        <mxPoint as="offset"/>
                    </mxGeometry>
                </mxCell>
                <mxCell id="f7n-re3Be10niUR_YaYW-9" value="" style="edgeStyle=none;html=1;dashed=1;fontSize=18;endArrow=none;endFill=0;verticalAlign=top;entryX=0.957;entryY=0.765;entryDx=0;entryDy=0;entryPerimeter=0;startArrow=open;startFill=0;" parent="qa684_AXgQvbB9roF3Fi-7" source="f7n-re3Be10niUR_YaYW-11" target="f7n-re3Be10niUR_YaYW-13" edge="1">
                    <mxGeometry relative="1" as="geometry">
                        <Array as="points">
                            <mxPoint x="510" y="124"/>
                        </Array>
                    </mxGeometry>
                </mxCell>
                <mxCell id="f7n-re3Be10niUR_YaYW-10" value="&amp;lt;&amp;lt;include&amp;gt;&amp;gt;" style="edgeLabel;html=1;align=left;verticalAlign=top;resizable=0;points=[];fontSize=18;" parent="f7n-re3Be10niUR_YaYW-9" vertex="1" connectable="0">
                    <mxGeometry x="0.3329" y="1" relative="1" as="geometry">
                        <mxPoint x="-13" as="offset"/>
                    </mxGeometry>
                </mxCell>
                <mxCell id="nVOZ0_uvJ3XeAdb-_UQF-15" value="" style="shape=ellipse;container=1;horizontal=1;horizontalStack=0;resizeParent=1;resizeParentMax=0;resizeLast=0;html=1;dashed=0;collapsible=0;fontSize=18;fillColor=none;" parent="qa684_AXgQvbB9roF3Fi-7" vertex="1">
                    <mxGeometry x="150" y="170" width="230" height="120" as="geometry"/>
                </mxCell>
                <mxCell id="nVOZ0_uvJ3XeAdb-_UQF-16" value="封包傳送案例" style="html=1;strokeColor=none;fillColor=none;align=center;verticalAlign=middle;rotatable=0;fontSize=18;" parent="nVOZ0_uvJ3XeAdb-_UQF-15" vertex="1">
                    <mxGeometry y="10" width="230.00000000000003" height="30" as="geometry"/>
                </mxCell>
                <mxCell id="nVOZ0_uvJ3XeAdb-_UQF-17" value="" style="line;strokeWidth=1;fillColor=none;rotatable=0;labelPosition=right;points=[];portConstraint=eastwest;dashed=0;resizeWidth=1;fontSize=18;" parent="nVOZ0_uvJ3XeAdb-_UQF-15" vertex="1">
                    <mxGeometry x="5.5" y="38" width="214.5" height="10" as="geometry"/>
                </mxCell>
                <mxCell id="nVOZ0_uvJ3XeAdb-_UQF-19" value="擴充點︰封包接受" style="text;html=1;align=left;verticalAlign=middle;rotatable=0;spacingLeft=25;fillColor=none;strokeColor=none;fontSize=18;" parent="nVOZ0_uvJ3XeAdb-_UQF-15" vertex="1">
                    <mxGeometry y="58" width="230.00000000000003" height="30" as="geometry"/>
                </mxCell>
                <mxCell id="nVOZ0_uvJ3XeAdb-_UQF-1" style="edgeStyle=none;html=1;entryX=1;entryY=1;entryDx=0;entryDy=0;fontSize=18;endArrow=none;endFill=0;exitX=0;exitY=0.5;exitDx=0;exitDy=0;" parent="f7n-re3Be10niUR_YaYW-1" source="nVOZ0_uvJ3XeAdb-_UQF-0" target="zsQrhb7hf74vSEVjKm_N-0" edge="1">
                    <mxGeometry relative="1" as="geometry">
                        <Array as="points">
                            <mxPoint x="910" y="440"/>
                            <mxPoint x="910" y="518"/>
                        </Array>
                    </mxGeometry>
                </mxCell>
                <mxCell id="nVOZ0_uvJ3XeAdb-_UQF-2" style="edgeStyle=none;html=1;entryX=1;entryY=1;entryDx=0;entryDy=0;fontSize=18;endArrow=none;endFill=0;" parent="f7n-re3Be10niUR_YaYW-1" source="nVOZ0_uvJ3XeAdb-_UQF-0" target="f7n-re3Be10niUR_YaYW-13" edge="1">
                    <mxGeometry relative="1" as="geometry">
                        <Array as="points">
                            <mxPoint x="910" y="440"/>
                            <mxPoint x="910" y="360"/>
                        </Array>
                    </mxGeometry>
                </mxCell>
                <mxCell id="nVOZ0_uvJ3XeAdb-_UQF-0" value="«actor»&lt;br&gt;&lt;b&gt;資料庫&lt;br&gt;&lt;/b&gt;" style="html=1;fontSize=18;fillColor=none;" parent="f7n-re3Be10niUR_YaYW-1" vertex="1">
                    <mxGeometry x="995" y="396" width="130" height="90" as="geometry"/>
                </mxCell>
            </root>
        </mxGraphModel>
    </diagram>
    <diagram name="User Case (3)" id="pHqB8nz68kYOs29TihyC">
        <mxGraphModel dx="917" dy="536" grid="1" gridSize="10" guides="1" tooltips="1" connect="1" arrows="1" fold="1" page="1" pageScale="1" pageWidth="1169" pageHeight="827" math="0" shadow="0">
            <root>
                <mxCell id="LVp6U3gjGCbH-Mrqdjtf-0"/>
                <mxCell id="LVp6U3gjGCbH-Mrqdjtf-1" parent="LVp6U3gjGCbH-Mrqdjtf-0"/>
                <mxCell id="LVp6U3gjGCbH-Mrqdjtf-2" style="edgeStyle=none;html=1;entryX=0.5;entryY=1;entryDx=0;entryDy=0;fontSize=18;endArrow=open;endFill=0;dashed=1;" parent="LVp6U3gjGCbH-Mrqdjtf-1" edge="1">
                    <mxGeometry relative="1" as="geometry">
                        <mxPoint x="270" y="150" as="targetPoint"/>
                    </mxGeometry>
                </mxCell>
                <mxCell id="LVp6U3gjGCbH-Mrqdjtf-3" style="edgeStyle=none;html=1;entryX=0;entryY=0.5;entryDx=0;entryDy=0;fontSize=18;endArrow=none;endFill=0;" parent="LVp6U3gjGCbH-Mrqdjtf-1" source="LVp6U3gjGCbH-Mrqdjtf-4" target="LVp6U3gjGCbH-Mrqdjtf-12" edge="1">
                    <mxGeometry relative="1" as="geometry"/>
                </mxCell>
                <mxCell id="LVp6U3gjGCbH-Mrqdjtf-4" value="&lt;span style=&quot;font-size: 18px;&quot;&gt;伺服器端&lt;br&gt;平台(收到封包)&lt;/span&gt;" style="shape=umlActor;verticalLabelPosition=bottom;verticalAlign=top;html=1;" parent="LVp6U3gjGCbH-Mrqdjtf-1" vertex="1">
                    <mxGeometry x="98" y="416" width="30" height="60" as="geometry"/>
                </mxCell>
                <mxCell id="LVp6U3gjGCbH-Mrqdjtf-6" style="edgeStyle=none;html=1;entryX=1;entryY=0;entryDx=0;entryDy=0;fontSize=18;endArrow=none;endFill=0;" parent="LVp6U3gjGCbH-Mrqdjtf-1" source="LVp6U3gjGCbH-Mrqdjtf-7" target="LVp6U3gjGCbH-Mrqdjtf-11" edge="1">
                    <mxGeometry relative="1" as="geometry">
                        <Array as="points">
                            <mxPoint x="841" y="190"/>
                            <mxPoint x="841" y="136"/>
                        </Array>
                    </mxGeometry>
                </mxCell>
                <mxCell id="IO_cDjj_4yWupPxHI2RV-0" style="edgeStyle=none;html=1;entryX=1;entryY=1;entryDx=0;entryDy=0;fontSize=18;endArrow=none;endFill=0;" parent="LVp6U3gjGCbH-Mrqdjtf-1" source="LVp6U3gjGCbH-Mrqdjtf-7" target="LVp6U3gjGCbH-Mrqdjtf-12" edge="1">
                    <mxGeometry relative="1" as="geometry">
                        <Array as="points">
                            <mxPoint x="981" y="484"/>
                        </Array>
                    </mxGeometry>
                </mxCell>
                <mxCell id="LVp6U3gjGCbH-Mrqdjtf-7" value="«actor»&lt;br&gt;伺服器端平台&lt;b&gt;&lt;br&gt;linux OS&lt;/b&gt;" style="html=1;fontSize=18;fillColor=none;" parent="LVp6U3gjGCbH-Mrqdjtf-1" vertex="1">
                    <mxGeometry x="891" y="136" width="180" height="120" as="geometry"/>
                </mxCell>
                <mxCell id="LVp6U3gjGCbH-Mrqdjtf-10" value="收到封包、於客戶端生License設計範圍" style="swimlane;whiteSpace=wrap;html=1;fontSize=18;fillColor=none;" parent="LVp6U3gjGCbH-Mrqdjtf-1" vertex="1">
                    <mxGeometry x="211" y="80" width="650" height="430" as="geometry"/>
                </mxCell>
                <mxCell id="LVp6U3gjGCbH-Mrqdjtf-11" value="客戶端生成License案例" style="ellipse;whiteSpace=wrap;html=1;fontSize=18;" parent="LVp6U3gjGCbH-Mrqdjtf-10" vertex="1">
                    <mxGeometry x="44" y="40" width="240" height="110" as="geometry"/>
                </mxCell>
                <mxCell id="LVp6U3gjGCbH-Mrqdjtf-12" value="封包接收案例" style="ellipse;whiteSpace=wrap;html=1;fontSize=18;" parent="LVp6U3gjGCbH-Mrqdjtf-10" vertex="1">
                    <mxGeometry x="46" y="310" width="240" height="110" as="geometry"/>
                </mxCell>
                <mxCell id="LVp6U3gjGCbH-Mrqdjtf-13" value="封包傳送案例" style="ellipse;whiteSpace=wrap;html=1;fontSize=18;" parent="LVp6U3gjGCbH-Mrqdjtf-10" vertex="1">
                    <mxGeometry x="366" y="218.00000000000006" width="240" height="110" as="geometry"/>
                </mxCell>
                <mxCell id="LVp6U3gjGCbH-Mrqdjtf-14" value="加解密案例" style="ellipse;whiteSpace=wrap;html=1;fontSize=18;align=center;" parent="LVp6U3gjGCbH-Mrqdjtf-10" vertex="1">
                    <mxGeometry x="417" y="104" width="140" height="70" as="geometry"/>
                </mxCell>
                <mxCell id="LVp6U3gjGCbH-Mrqdjtf-15" style="edgeStyle=none;html=1;entryX=0.5;entryY=1;entryDx=0;entryDy=0;fontSize=18;endArrow=none;endFill=0;dashed=1;exitX=0.5;exitY=0;exitDx=0;exitDy=0;startArrow=open;startFill=0;" parent="LVp6U3gjGCbH-Mrqdjtf-10" source="LVp6U3gjGCbH-Mrqdjtf-12" target="LVp6U3gjGCbH-Mrqdjtf-11" edge="1">
                    <mxGeometry relative="1" as="geometry">
                        <mxPoint x="30" y="490" as="sourcePoint"/>
                    </mxGeometry>
                </mxCell>
                <mxCell id="LVp6U3gjGCbH-Mrqdjtf-16" value="&amp;lt;&amp;lt;include&amp;gt;&amp;gt;" style="edgeLabel;html=1;align=left;verticalAlign=middle;resizable=0;points=[];fontSize=18;" parent="LVp6U3gjGCbH-Mrqdjtf-15" vertex="1" connectable="0">
                    <mxGeometry x="-0.1523" y="1" relative="1" as="geometry">
                        <mxPoint as="offset"/>
                    </mxGeometry>
                </mxCell>
                <mxCell id="LVp6U3gjGCbH-Mrqdjtf-17" style="edgeStyle=none;html=1;dashed=1;fontSize=18;endArrow=open;endFill=0;" parent="LVp6U3gjGCbH-Mrqdjtf-10" source="LVp6U3gjGCbH-Mrqdjtf-12" target="LVp6U3gjGCbH-Mrqdjtf-13" edge="1">
                    <mxGeometry relative="1" as="geometry">
                        <mxPoint x="154" y="179.71000000000004" as="targetPoint"/>
                        <Array as="points">
                            <mxPoint x="486" y="370"/>
                        </Array>
                    </mxGeometry>
                </mxCell>
                <mxCell id="LVp6U3gjGCbH-Mrqdjtf-18" value="&amp;lt;&amp;lt;extend&amp;gt;&amp;gt;" style="edgeLabel;html=1;align=right;verticalAlign=middle;resizable=0;points=[];fontSize=18;" parent="LVp6U3gjGCbH-Mrqdjtf-17" vertex="1" connectable="0">
                    <mxGeometry x="-0.284" y="1" relative="1" as="geometry">
                        <mxPoint x="50" as="offset"/>
                    </mxGeometry>
                </mxCell>
                <mxCell id="LVp6U3gjGCbH-Mrqdjtf-21" value="" style="edgeStyle=none;html=1;dashed=1;fontSize=18;endArrow=none;endFill=0;verticalAlign=top;startArrow=open;startFill=0;" parent="LVp6U3gjGCbH-Mrqdjtf-10" source="LVp6U3gjGCbH-Mrqdjtf-14" target="LVp6U3gjGCbH-Mrqdjtf-11" edge="1">
                    <mxGeometry relative="1" as="geometry"/>
                </mxCell>
                <mxCell id="LVp6U3gjGCbH-Mrqdjtf-22" value="&amp;lt;&amp;lt;include&amp;gt;&amp;gt;" style="edgeLabel;html=1;align=left;verticalAlign=top;resizable=0;points=[];fontSize=18;" parent="LVp6U3gjGCbH-Mrqdjtf-21" vertex="1" connectable="0">
                    <mxGeometry x="0.3329" y="1" relative="1" as="geometry">
                        <mxPoint x="-29" as="offset"/>
                    </mxGeometry>
                </mxCell>
            </root>
        </mxGraphModel>
    </diagram>
    <diagram id="Hh6bqZgS_0z6HOaC0K2M" name="Class (1)">
        <mxGraphModel dx="917" dy="536" grid="1" gridSize="10" guides="1" tooltips="1" connect="1" arrows="1" fold="1" page="1" pageScale="1" pageWidth="1169" pageHeight="827" math="0" shadow="0">
            <root>
                <mxCell id="0"/>
                <mxCell id="1" parent="0"/>
                <mxCell id="N07s4q0SCdiuxr3j6stX-1" value="Encode" style="swimlane;fontStyle=1;align=center;verticalAlign=top;childLayout=stackLayout;horizontal=1;startSize=26;horizontalStack=0;resizeParent=1;resizeParentMax=0;resizeLast=0;collapsible=1;marginBottom=0;" parent="1" vertex="1">
                    <mxGeometry x="410" y="220" width="426" height="112" as="geometry">
                        <mxRectangle x="560" y="84" width="80" height="30" as="alternateBounds"/>
                    </mxGeometry>
                </mxCell>
                <mxCell id="N07s4q0SCdiuxr3j6stX-2" value="None" style="text;strokeColor=none;fillColor=none;align=left;verticalAlign=top;spacingLeft=4;spacingRight=4;overflow=hidden;rotatable=0;points=[[0,0.5],[1,0.5]];portConstraint=eastwest;" parent="N07s4q0SCdiuxr3j6stX-1" vertex="1">
                    <mxGeometry y="26" width="426" height="26" as="geometry"/>
                </mxCell>
                <mxCell id="N07s4q0SCdiuxr3j6stX-3" value="" style="line;strokeWidth=1;fillColor=none;align=left;verticalAlign=middle;spacingTop=-1;spacingLeft=3;spacingRight=3;rotatable=0;labelPosition=right;points=[];portConstraint=eastwest;strokeColor=inherit;" parent="N07s4q0SCdiuxr3j6stX-1" vertex="1">
                    <mxGeometry y="52" width="426" height="8" as="geometry"/>
                </mxCell>
                <mxCell id="N07s4q0SCdiuxr3j6stX-4" value="+ getEncrytion(char* source, int sourceLen, char*  target, int* targetLen): void" style="text;strokeColor=none;fillColor=none;align=left;verticalAlign=top;spacingLeft=4;spacingRight=4;overflow=hidden;rotatable=0;points=[[0,0.5],[1,0.5]];portConstraint=eastwest;" parent="N07s4q0SCdiuxr3j6stX-1" vertex="1">
                    <mxGeometry y="60" width="426" height="26" as="geometry"/>
                </mxCell>
                <mxCell id="N07s4q0SCdiuxr3j6stX-6" value="+ getDecrytion(char* source, int sourceLen, char*  target, int* targetLen): void" style="text;strokeColor=none;fillColor=none;align=left;verticalAlign=top;spacingLeft=4;spacingRight=4;overflow=hidden;rotatable=0;points=[[0,0.5],[1,0.5]];portConstraint=eastwest;" parent="N07s4q0SCdiuxr3j6stX-1" vertex="1">
                    <mxGeometry y="86" width="426" height="26" as="geometry"/>
                </mxCell>
                <mxCell id="N07s4q0SCdiuxr3j6stX-12" style="edgeStyle=none;html=1;entryX=0;entryY=0.25;entryDx=0;entryDy=0;exitX=1;exitY=0.25;exitDx=0;exitDy=0;endArrow=none;endFill=0;" parent="1" source="N07s4q0SCdiuxr3j6stX-7" target="N07s4q0SCdiuxr3j6stX-1" edge="1">
                    <mxGeometry relative="1" as="geometry">
                        <Array as="points">
                            <mxPoint x="340" y="90"/>
                            <mxPoint x="340" y="180"/>
                            <mxPoint x="380" y="180"/>
                            <mxPoint x="380" y="248"/>
                        </Array>
                    </mxGeometry>
                </mxCell>
                <mxCell id="N07s4q0SCdiuxr3j6stX-13" value="0, 1" style="edgeLabel;html=1;align=center;verticalAlign=bottom;resizable=0;points=[];" parent="N07s4q0SCdiuxr3j6stX-12" vertex="1" connectable="0">
                    <mxGeometry x="-0.81" y="-1" relative="1" as="geometry">
                        <mxPoint as="offset"/>
                    </mxGeometry>
                </mxCell>
                <mxCell id="N07s4q0SCdiuxr3j6stX-14" value="1" style="edgeLabel;html=1;align=left;verticalAlign=bottom;resizable=0;points=[];" parent="N07s4q0SCdiuxr3j6stX-12" vertex="1" connectable="0">
                    <mxGeometry x="0.7284" y="-1" relative="1" as="geometry">
                        <mxPoint as="offset"/>
                    </mxGeometry>
                </mxCell>
                <mxCell id="N07s4q0SCdiuxr3j6stX-15" value="transmit" style="edgeLabel;html=1;align=center;verticalAlign=bottom;resizable=0;points=[];" parent="N07s4q0SCdiuxr3j6stX-12" vertex="1" connectable="0">
                    <mxGeometry x="0.2361" y="-1" relative="1" as="geometry">
                        <mxPoint x="-13" as="offset"/>
                    </mxGeometry>
                </mxCell>
                <mxCell id="-GK1jL5z96uq6KsaCK04-9" style="edgeStyle=none;html=1;exitX=0;exitY=0.25;exitDx=0;exitDy=0;entryX=0;entryY=0.5;entryDx=0;entryDy=0;endArrow=none;endFill=0;" parent="1" source="N07s4q0SCdiuxr3j6stX-7" target="-GK1jL5z96uq6KsaCK04-5" edge="1">
                    <mxGeometry relative="1" as="geometry">
                        <Array as="points">
                            <mxPoint x="50" y="90"/>
                            <mxPoint x="50" y="329"/>
                        </Array>
                    </mxGeometry>
                </mxCell>
                <mxCell id="-GK1jL5z96uq6KsaCK04-10" value="1" style="edgeLabel;html=1;align=center;verticalAlign=bottom;resizable=0;points=[];" parent="-GK1jL5z96uq6KsaCK04-9" vertex="1" connectable="0">
                    <mxGeometry x="-0.9166" relative="1" as="geometry">
                        <mxPoint as="offset"/>
                    </mxGeometry>
                </mxCell>
                <mxCell id="-GK1jL5z96uq6KsaCK04-11" value="0, 1" style="edgeLabel;html=1;align=center;verticalAlign=bottom;resizable=0;points=[];" parent="-GK1jL5z96uq6KsaCK04-9" vertex="1" connectable="0">
                    <mxGeometry x="0.9445" relative="1" as="geometry">
                        <mxPoint as="offset"/>
                    </mxGeometry>
                </mxCell>
                <mxCell id="-GK1jL5z96uq6KsaCK04-12" value="generate" style="edgeLabel;html=1;align=left;verticalAlign=middle;resizable=0;points=[];" parent="-GK1jL5z96uq6KsaCK04-9" vertex="1" connectable="0">
                    <mxGeometry x="0.0801" relative="1" as="geometry">
                        <mxPoint as="offset"/>
                    </mxGeometry>
                </mxCell>
                <mxCell id="-GK1jL5z96uq6KsaCK04-17" style="edgeStyle=none;html=1;exitX=0.25;exitY=0;exitDx=0;exitDy=0;entryX=0.5;entryY=0;entryDx=0;entryDy=0;endArrow=none;endFill=0;" parent="1" source="N07s4q0SCdiuxr3j6stX-7" target="-GK1jL5z96uq6KsaCK04-1" edge="1">
                    <mxGeometry relative="1" as="geometry">
                        <Array as="points">
                            <mxPoint x="212" y="30"/>
                            <mxPoint x="470" y="30"/>
                        </Array>
                    </mxGeometry>
                </mxCell>
                <mxCell id="-GK1jL5z96uq6KsaCK04-19" value="1" style="edgeLabel;html=1;align=left;verticalAlign=middle;resizable=0;points=[];" parent="-GK1jL5z96uq6KsaCK04-17" vertex="1" connectable="0">
                    <mxGeometry x="0.9212" y="-1" relative="1" as="geometry">
                        <mxPoint as="offset"/>
                    </mxGeometry>
                </mxCell>
                <mxCell id="-GK1jL5z96uq6KsaCK04-21" value="transmit" style="edgeLabel;html=1;align=center;verticalAlign=top;resizable=0;points=[];" parent="-GK1jL5z96uq6KsaCK04-17" vertex="1" connectable="0">
                    <mxGeometry x="-0.0635" y="1" relative="1" as="geometry">
                        <mxPoint as="offset"/>
                    </mxGeometry>
                </mxCell>
                <mxCell id="-GK1jL5z96uq6KsaCK04-22" value="1" style="edgeLabel;html=1;align=left;verticalAlign=middle;resizable=0;points=[];" parent="-GK1jL5z96uq6KsaCK04-17" vertex="1" connectable="0">
                    <mxGeometry x="-0.9281" relative="1" as="geometry">
                        <mxPoint as="offset"/>
                    </mxGeometry>
                </mxCell>
                <mxCell id="N07s4q0SCdiuxr3j6stX-7" value="Transmission" style="swimlane;fontStyle=1;align=center;verticalAlign=top;childLayout=stackLayout;horizontal=1;startSize=26;horizontalStack=0;resizeParent=1;resizeParentMax=0;resizeLast=0;collapsible=1;marginBottom=0;" parent="1" vertex="1">
                    <mxGeometry x="182" y="68" width="120" height="86" as="geometry">
                        <mxRectangle x="290" y="90" width="120" height="30" as="alternateBounds"/>
                    </mxGeometry>
                </mxCell>
                <mxCell id="N07s4q0SCdiuxr3j6stX-8" value="None" style="text;strokeColor=none;fillColor=none;align=left;verticalAlign=top;spacingLeft=4;spacingRight=4;overflow=hidden;rotatable=0;points=[[0,0.5],[1,0.5]];portConstraint=eastwest;" parent="N07s4q0SCdiuxr3j6stX-7" vertex="1">
                    <mxGeometry y="26" width="120" height="26" as="geometry"/>
                </mxCell>
                <mxCell id="N07s4q0SCdiuxr3j6stX-9" value="" style="line;strokeWidth=1;fillColor=none;align=left;verticalAlign=middle;spacingTop=-1;spacingLeft=3;spacingRight=3;rotatable=0;labelPosition=right;points=[];portConstraint=eastwest;strokeColor=inherit;" parent="N07s4q0SCdiuxr3j6stX-7" vertex="1">
                    <mxGeometry y="52" width="120" height="8" as="geometry"/>
                </mxCell>
                <mxCell id="N07s4q0SCdiuxr3j6stX-10" value="None" style="text;strokeColor=none;fillColor=none;align=left;verticalAlign=top;spacingLeft=4;spacingRight=4;overflow=hidden;rotatable=0;points=[[0,0.5],[1,0.5]];portConstraint=eastwest;" parent="N07s4q0SCdiuxr3j6stX-7" vertex="1">
                    <mxGeometry y="60" width="120" height="26" as="geometry"/>
                </mxCell>
                <mxCell id="9x6wTXbpcP_bJPz0Jybw-1" value="Register" style="swimlane;fontStyle=1;align=center;verticalAlign=top;childLayout=stackLayout;horizontal=1;startSize=26;horizontalStack=0;resizeParent=1;resizeParentMax=0;resizeLast=0;collapsible=1;marginBottom=0;" parent="1" vertex="1">
                    <mxGeometry x="182" y="174" width="120" height="86" as="geometry">
                        <mxRectangle x="290" y="90" width="120" height="30" as="alternateBounds"/>
                    </mxGeometry>
                </mxCell>
                <mxCell id="9x6wTXbpcP_bJPz0Jybw-2" value="None" style="text;strokeColor=none;fillColor=none;align=left;verticalAlign=top;spacingLeft=4;spacingRight=4;overflow=hidden;rotatable=0;points=[[0,0.5],[1,0.5]];portConstraint=eastwest;" parent="9x6wTXbpcP_bJPz0Jybw-1" vertex="1">
                    <mxGeometry y="26" width="120" height="26" as="geometry"/>
                </mxCell>
                <mxCell id="9x6wTXbpcP_bJPz0Jybw-3" value="" style="line;strokeWidth=1;fillColor=none;align=left;verticalAlign=middle;spacingTop=-1;spacingLeft=3;spacingRight=3;rotatable=0;labelPosition=right;points=[];portConstraint=eastwest;strokeColor=inherit;" parent="9x6wTXbpcP_bJPz0Jybw-1" vertex="1">
                    <mxGeometry y="52" width="120" height="8" as="geometry"/>
                </mxCell>
                <mxCell id="9x6wTXbpcP_bJPz0Jybw-4" value="None" style="text;strokeColor=none;fillColor=none;align=left;verticalAlign=top;spacingLeft=4;spacingRight=4;overflow=hidden;rotatable=0;points=[[0,0.5],[1,0.5]];portConstraint=eastwest;" parent="9x6wTXbpcP_bJPz0Jybw-1" vertex="1">
                    <mxGeometry y="60" width="120" height="26" as="geometry"/>
                </mxCell>
                <mxCell id="o0i1Yrkj2u1s_VMlwe0V-1" style="edgeStyle=none;html=1;exitX=0;exitY=0.5;exitDx=0;exitDy=0;endArrow=none;endFill=0;entryX=1;entryY=0.5;entryDx=0;entryDy=0;" parent="1" source="N07s4q0SCdiuxr3j6stX-6" target="9x6wTXbpcP_bJPz0Jybw-2" edge="1">
                    <mxGeometry relative="1" as="geometry">
                        <mxPoint x="302" y="248" as="targetPoint"/>
                        <Array as="points">
                            <mxPoint x="360" y="319"/>
                            <mxPoint x="360" y="213"/>
                        </Array>
                    </mxGeometry>
                </mxCell>
                <mxCell id="o0i1Yrkj2u1s_VMlwe0V-2" value="encode" style="edgeLabel;html=1;align=center;verticalAlign=bottom;resizable=0;points=[];" parent="o0i1Yrkj2u1s_VMlwe0V-1" vertex="1" connectable="0">
                    <mxGeometry x="-0.1996" relative="1" as="geometry">
                        <mxPoint x="-17" as="offset"/>
                    </mxGeometry>
                </mxCell>
                <mxCell id="o0i1Yrkj2u1s_VMlwe0V-3" value="1" style="edgeLabel;html=1;align=center;verticalAlign=bottom;resizable=0;points=[];" parent="o0i1Yrkj2u1s_VMlwe0V-1" vertex="1" connectable="0">
                    <mxGeometry x="-0.7904" y="-3" relative="1" as="geometry">
                        <mxPoint as="offset"/>
                    </mxGeometry>
                </mxCell>
                <mxCell id="o0i1Yrkj2u1s_VMlwe0V-4" value="1" style="edgeLabel;html=1;align=center;verticalAlign=bottom;resizable=0;points=[];" parent="o0i1Yrkj2u1s_VMlwe0V-1" vertex="1" connectable="0">
                    <mxGeometry x="0.8581" relative="1" as="geometry">
                        <mxPoint as="offset"/>
                    </mxGeometry>
                </mxCell>
                <mxCell id="ylEBXyZjRZnanVHM_lDF-1" style="edgeStyle=none;html=1;entryX=0;entryY=0.5;entryDx=0;entryDy=0;endArrow=none;endFill=0;exitX=0;exitY=0.5;exitDx=0;exitDy=0;" parent="1" source="N07s4q0SCdiuxr3j6stX-8" target="9x6wTXbpcP_bJPz0Jybw-2" edge="1">
                    <mxGeometry relative="1" as="geometry">
                        <Array as="points">
                            <mxPoint x="122" y="106"/>
                            <mxPoint x="122" y="213"/>
                        </Array>
                    </mxGeometry>
                </mxCell>
                <mxCell id="ylEBXyZjRZnanVHM_lDF-2" value="1" style="edgeLabel;html=1;align=center;verticalAlign=top;resizable=0;points=[];" parent="ylEBXyZjRZnanVHM_lDF-1" vertex="1" connectable="0">
                    <mxGeometry x="-0.8711" relative="1" as="geometry">
                        <mxPoint as="offset"/>
                    </mxGeometry>
                </mxCell>
                <mxCell id="ylEBXyZjRZnanVHM_lDF-3" value="1" style="edgeLabel;html=1;align=center;verticalAlign=top;resizable=0;points=[];" parent="ylEBXyZjRZnanVHM_lDF-1" vertex="1" connectable="0">
                    <mxGeometry x="0.8711" relative="1" as="geometry">
                        <mxPoint as="offset"/>
                    </mxGeometry>
                </mxCell>
                <mxCell id="ylEBXyZjRZnanVHM_lDF-4" value="transmit" style="edgeLabel;html=1;align=left;verticalAlign=middle;resizable=0;points=[];" parent="ylEBXyZjRZnanVHM_lDF-1" vertex="1" connectable="0">
                    <mxGeometry x="0.1067" y="-2" relative="1" as="geometry">
                        <mxPoint as="offset"/>
                    </mxGeometry>
                </mxCell>
                <mxCell id="-GK1jL5z96uq6KsaCK04-1" value="License" style="swimlane;fontStyle=1;align=center;verticalAlign=top;childLayout=stackLayout;horizontal=1;startSize=26;horizontalStack=0;resizeParent=1;resizeParentMax=0;resizeLast=0;collapsible=1;marginBottom=0;" parent="1" vertex="1">
                    <mxGeometry x="410" y="66" width="120" height="86" as="geometry">
                        <mxRectangle x="290" y="90" width="120" height="30" as="alternateBounds"/>
                    </mxGeometry>
                </mxCell>
                <mxCell id="-GK1jL5z96uq6KsaCK04-2" value="None" style="text;strokeColor=none;fillColor=none;align=left;verticalAlign=top;spacingLeft=4;spacingRight=4;overflow=hidden;rotatable=0;points=[[0,0.5],[1,0.5]];portConstraint=eastwest;" parent="-GK1jL5z96uq6KsaCK04-1" vertex="1">
                    <mxGeometry y="26" width="120" height="26" as="geometry"/>
                </mxCell>
                <mxCell id="-GK1jL5z96uq6KsaCK04-3" value="" style="line;strokeWidth=1;fillColor=none;align=left;verticalAlign=middle;spacingTop=-1;spacingLeft=3;spacingRight=3;rotatable=0;labelPosition=right;points=[];portConstraint=eastwest;strokeColor=inherit;" parent="-GK1jL5z96uq6KsaCK04-1" vertex="1">
                    <mxGeometry y="52" width="120" height="8" as="geometry"/>
                </mxCell>
                <mxCell id="-GK1jL5z96uq6KsaCK04-4" value="None" style="text;strokeColor=none;fillColor=none;align=left;verticalAlign=top;spacingLeft=4;spacingRight=4;overflow=hidden;rotatable=0;points=[[0,0.5],[1,0.5]];portConstraint=eastwest;" parent="-GK1jL5z96uq6KsaCK04-1" vertex="1">
                    <mxGeometry y="60" width="120" height="26" as="geometry"/>
                </mxCell>
                <mxCell id="-GK1jL5z96uq6KsaCK04-5" value="FileGenneration" style="swimlane;fontStyle=1;align=center;verticalAlign=top;childLayout=stackLayout;horizontal=1;startSize=26;horizontalStack=0;resizeParent=1;resizeParentMax=0;resizeLast=0;collapsible=1;marginBottom=0;" parent="1" vertex="1">
                    <mxGeometry x="182" y="286" width="120" height="86" as="geometry">
                        <mxRectangle x="290" y="90" width="120" height="30" as="alternateBounds"/>
                    </mxGeometry>
                </mxCell>
                <mxCell id="-GK1jL5z96uq6KsaCK04-6" value="None" style="text;strokeColor=none;fillColor=none;align=left;verticalAlign=top;spacingLeft=4;spacingRight=4;overflow=hidden;rotatable=0;points=[[0,0.5],[1,0.5]];portConstraint=eastwest;" parent="-GK1jL5z96uq6KsaCK04-5" vertex="1">
                    <mxGeometry y="26" width="120" height="26" as="geometry"/>
                </mxCell>
                <mxCell id="-GK1jL5z96uq6KsaCK04-7" value="" style="line;strokeWidth=1;fillColor=none;align=left;verticalAlign=middle;spacingTop=-1;spacingLeft=3;spacingRight=3;rotatable=0;labelPosition=right;points=[];portConstraint=eastwest;strokeColor=inherit;" parent="-GK1jL5z96uq6KsaCK04-5" vertex="1">
                    <mxGeometry y="52" width="120" height="8" as="geometry"/>
                </mxCell>
                <mxCell id="-GK1jL5z96uq6KsaCK04-8" value="None" style="text;strokeColor=none;fillColor=none;align=left;verticalAlign=top;spacingLeft=4;spacingRight=4;overflow=hidden;rotatable=0;points=[[0,0.5],[1,0.5]];portConstraint=eastwest;" parent="-GK1jL5z96uq6KsaCK04-5" vertex="1">
                    <mxGeometry y="60" width="120" height="26" as="geometry"/>
                </mxCell>
                <mxCell id="-GK1jL5z96uq6KsaCK04-13" style="edgeStyle=none;html=1;exitX=1;exitY=0.5;exitDx=0;exitDy=0;entryX=1;entryY=0.25;entryDx=0;entryDy=0;endArrow=none;endFill=0;" parent="1" source="-GK1jL5z96uq6KsaCK04-2" target="N07s4q0SCdiuxr3j6stX-1" edge="1">
                    <mxGeometry relative="1" as="geometry">
                        <Array as="points">
                            <mxPoint x="880" y="107"/>
                            <mxPoint x="880" y="248"/>
                        </Array>
                    </mxGeometry>
                </mxCell>
                <mxCell id="-GK1jL5z96uq6KsaCK04-14" value="1" style="edgeLabel;html=1;align=center;verticalAlign=bottom;resizable=0;points=[];" parent="-GK1jL5z96uq6KsaCK04-13" vertex="1" connectable="0">
                    <mxGeometry x="0.9609" y="1" relative="1" as="geometry">
                        <mxPoint as="offset"/>
                    </mxGeometry>
                </mxCell>
                <mxCell id="-GK1jL5z96uq6KsaCK04-15" value="1" style="edgeLabel;html=1;align=center;verticalAlign=bottom;resizable=0;points=[];" parent="-GK1jL5z96uq6KsaCK04-13" vertex="1" connectable="0">
                    <mxGeometry x="-0.9572" y="1" relative="1" as="geometry">
                        <mxPoint as="offset"/>
                    </mxGeometry>
                </mxCell>
                <mxCell id="-GK1jL5z96uq6KsaCK04-18" value="encode" style="edgeLabel;html=1;align=center;verticalAlign=bottom;resizable=0;points=[];" parent="-GK1jL5z96uq6KsaCK04-13" vertex="1" connectable="0">
                    <mxGeometry x="-0.1192" y="3" relative="1" as="geometry">
                        <mxPoint as="offset"/>
                    </mxGeometry>
                </mxCell>
            </root>
        </mxGraphModel>
    </diagram>
</mxfile>